<svg width="116" height="116" viewBox="0 0 116 116" fill="none" xmlns="http://www.w3.org/2000/svg">
<g filter="url(#filter0_d_899_802)">
<rect x="21" y="22" width="68" height="68" rx="34" fill="white" shape-rendering="crispEdges"/>
<g clip-path="url(#clip0_899_802)">
<path d="M48.1163 76.3256C52.0445 76.3256 55.2326 73.3146 55.2326 69.6047V62.8837H48.1163C44.1881 62.8837 41 65.8947 41 69.6047C41 73.3146 44.1881 76.3256 48.1163 76.3256Z" fill="#0ACF83"/>
<path d="M41 56.1628C41 52.4529 44.1881 49.4419 48.1163 49.4419H55.2326V62.8838H48.1163C44.1881 62.8838 41 59.8728 41 56.1628Z" fill="#A259FF"/>
<path d="M41 42.7209C41 39.011 44.1881 36 48.1163 36H55.2326V49.4419H48.1163C44.1881 49.4419 41 46.4309 41 42.7209Z" fill="#F24E1E"/>
<path d="M55.2327 36H62.3489C66.2771 36 69.4652 39.011 69.4652 42.7209C69.4652 46.4309 66.2771 49.4419 62.3489 49.4419H55.2327V36Z" fill="#FF7262"/>
<path d="M69.4652 56.1628C69.4652 59.8728 66.2771 62.8838 62.3489 62.8838C58.4208 62.8838 55.2327 59.8728 55.2327 56.1628C55.2327 52.4529 58.4208 49.4419 62.3489 49.4419C66.2771 49.4419 69.4652 52.4529 69.4652 56.1628Z" fill="#1ABCFE"/>
</g>
</g>
<defs>
<filter id="filter0_d_899_802" x="0" y="0" width="116" height="116" filterUnits="userSpaceOnUse" color-interpolation-filters="sRGB">
<feFlood flood-opacity="0" result="BackgroundImageFix"/>
<feColorMatrix in="SourceAlpha" type="matrix" values="0 0 0 0 0 0 0 0 0 0 0 0 0 0 0 0 0 0 127 0" result="hardAlpha"/>
<feOffset dx="3" dy="2"/>
<feGaussianBlur stdDeviation="12"/>
<feComposite in2="hardAlpha" operator="out"/>
<feColorMatrix type="matrix" values="0 0 0 0 0 0 0 0 0 0 0 0 0 0 0 0 0 0 0.09 0"/>
<feBlend mode="normal" in2="BackgroundImageFix" result="effect1_dropShadow_899_802"/>
<feBlend mode="normal" in="SourceGraphic" in2="effect1_dropShadow_899_802" result="shape"/>
</filter>
<clipPath id="clip0_899_802">
<rect width="28.4651" height="40.3256" fill="white" transform="translate(41 36)"/>
</clipPath>
</defs>
</svg>
