<svg width="116" height="116" viewBox="0 0 116 116" fill="none" xmlns="http://www.w3.org/2000/svg">
<g filter="url(#filter0_d_899_813)">
<rect x="21" y="22" width="68" height="68" rx="34" fill="white" shape-rendering="crispEdges"/>
<g clip-path="url(#clip0_899_813)">
<path d="M58.3241 36L38 55.8949L44.2906 62.0526L70.9056 36.0001L58.3241 36Z" fill="#47C5FB"/>
<path d="M58.1827 54.3466L47.3008 64.9987L53.6151 71.272L59.8941 65.1256L70.906 54.3466H58.1827Z" fill="#47C5FB"/>
<path d="M53.615 71.272L58.3951 75.9511H70.9057L59.8939 65.1256L53.615 71.272Z" fill="#00569E"/>
<path d="M47.2297 65.068L53.5205 58.9102L59.8937 65.1257L53.6147 71.272L47.2297 65.068Z" fill="#00B5F8"/>
<path d="M53.615 71.2721L58.8434 69.5738L59.3628 65.6458L53.615 71.2721Z" fill="url(#paint0_linear_899_813)" fill-opacity="0.8"/>
</g>
</g>
<defs>
<filter id="filter0_d_899_813" x="0" y="0" width="116" height="116" filterUnits="userSpaceOnUse" color-interpolation-filters="sRGB">
<feFlood flood-opacity="0" result="BackgroundImageFix"/>
<feColorMatrix in="SourceAlpha" type="matrix" values="0 0 0 0 0 0 0 0 0 0 0 0 0 0 0 0 0 0 127 0" result="hardAlpha"/>
<feOffset dx="3" dy="2"/>
<feGaussianBlur stdDeviation="12"/>
<feComposite in2="hardAlpha" operator="out"/>
<feColorMatrix type="matrix" values="0 0 0 0 0 0 0 0 0 0 0 0 0 0 0 0 0 0 0.09 0"/>
<feBlend mode="normal" in2="BackgroundImageFix" result="effect1_dropShadow_899_813"/>
<feBlend mode="normal" in="SourceGraphic" in2="effect1_dropShadow_899_813" result="shape"/>
</filter>
<linearGradient id="paint0_linear_899_813" x1="53.8421" y1="67.1645" x2="57.9568" y2="68.6792" gradientUnits="userSpaceOnUse">
<stop/>
<stop offset="1" stop-opacity="0"/>
</linearGradient>
<clipPath id="clip0_899_813">
<rect width="33" height="40" fill="white" transform="translate(38 36)"/>
</clipPath>
</defs>
</svg>
