<svg width="114" height="114" viewBox="0 0 114 114" fill="none" xmlns="http://www.w3.org/2000/svg">
<g filter="url(#filter0_d_899_847)">
<rect x="32" y="28" width="50" height="50" rx="25" fill="white" shape-rendering="crispEdges"/>
<g clip-path="url(#clip0_899_847)">
<path fill-rule="evenodd" clip-rule="evenodd" d="M57 33C45.95 33 37 41.95 37 53C37 61.85 42.725 69.325 50.675 71.975C51.675 72.15 52.05 71.55 52.05 71.025C52.05 70.55 52.025 68.975 52.025 67.3C47 68.225 45.7 66.075 45.3 64.95C45.075 64.375 44.1 62.6 43.25 62.125C42.55 61.75 41.55 60.825 43.225 60.8C44.8 60.775 45.925 62.25 46.3 62.85C48.1 65.875 50.975 65.025 52.125 64.5C52.3 63.2 52.825 62.325 53.4 61.825C48.95 61.325 44.3 59.6 44.3 51.95C44.3 49.775 45.075 47.975 46.35 46.575C46.15 46.075 45.45 44.025 46.55 41.275C46.55 41.275 48.225 40.75 52.05 43.325C53.65 42.875 55.35 42.65 57.05 42.65C58.75 42.65 60.45 42.875 62.05 43.325C65.875 40.725 67.55 41.275 67.55 41.275C68.65 44.025 67.95 46.075 67.75 46.575C69.025 47.975 69.8 49.75 69.8 51.95C69.8 59.625 65.125 61.325 60.675 61.825C61.4 62.45 62.025 63.65 62.025 65.525C62.025 68.2 62 70.35 62 71.025C62 71.55 62.375 72.175 63.375 71.975C67.3453 70.6345 70.7953 68.0828 73.2394 64.6789C75.6836 61.2751 76.9988 57.1905 77 53C77 41.95 68.05 33 57 33Z" fill="black"/>
</g>
</g>
<defs>
<filter id="filter0_d_899_847" x="0" y="0" width="114" height="114" filterUnits="userSpaceOnUse" color-interpolation-filters="sRGB">
<feFlood flood-opacity="0" result="BackgroundImageFix"/>
<feColorMatrix in="SourceAlpha" type="matrix" values="0 0 0 0 0 0 0 0 0 0 0 0 0 0 0 0 0 0 127 0" result="hardAlpha"/>
<feOffset dy="4"/>
<feGaussianBlur stdDeviation="16"/>
<feComposite in2="hardAlpha" operator="out"/>
<feColorMatrix type="matrix" values="0 0 0 0 0 0 0 0 0 0 0 0 0 0 0 0 0 0 0.11 0"/>
<feBlend mode="normal" in2="BackgroundImageFix" result="effect1_dropShadow_899_847"/>
<feBlend mode="normal" in="SourceGraphic" in2="effect1_dropShadow_899_847" result="shape"/>
</filter>
<clipPath id="clip0_899_847">
<rect width="40" height="40" fill="white" transform="translate(37 33)"/>
</clipPath>
</defs>
</svg>
