<svg width="116" height="116" viewBox="0 0 116 116" fill="none" xmlns="http://www.w3.org/2000/svg">
<g filter="url(#filter0_d_899_839)">
<rect x="21" y="22" width="68" height="68" rx="34" fill="white" shape-rendering="crispEdges"/>
<path d="M71.3739 36H38.6261C36.6234 36 35 37.6234 35 39.6261V72.3739C35 74.3766 36.6234 76 38.6261 76H71.3739C73.3766 76 75 74.3766 75 72.3739V39.6261C75 37.6234 73.3766 36 71.3739 36Z" fill="#DC395F"/>
<path d="M48.368 48.5852C49.6977 48.5852 50.8116 47.543 50.8116 46.177C50.8116 44.812 49.6977 43.77 48.368 43.77C47.0383 43.77 45.9247 44.812 45.9247 46.177C45.9247 47.5428 47.0383 48.5852 48.368 48.5852Z" fill="white"/>
<path d="M43.3014 61.4788C43.1578 62.0897 43.0858 62.7494 43.0858 63.2876C43.0858 65.408 44.2356 66.8157 46.6792 66.8157C48.7058 66.8157 50.3487 65.6122 51.5317 63.669L50.8093 66.5679H54.8336L57.1336 57.343C57.7086 55.0074 58.8225 53.7951 60.5115 53.7951C61.8411 53.7951 62.6675 54.6219 62.6675 55.9869C62.6675 56.3824 62.6315 56.8132 62.4878 57.2805L61.3018 61.5207C61.1222 62.1316 61.0506 62.7429 61.0506 63.3174C61.0506 65.3304 62.2361 66.8027 64.7156 66.8027C66.8358 66.8027 68.5245 65.4379 69.4589 62.1677L67.8779 61.5574C67.0873 63.7482 66.4045 64.1443 65.8654 64.1443C65.3264 64.1443 65.0389 63.7852 65.0389 63.0669C65.0389 62.7435 65.1111 62.3846 65.2186 61.9524L66.3687 57.8215C66.6561 56.8515 66.764 55.9913 66.764 55.201C66.764 52.1107 64.8953 50.4979 62.6315 50.4979C60.5115 50.4979 58.3553 52.4102 57.2775 54.4229L58.0678 50.8104H51.9234L51.0609 53.9922H53.9358L52.1654 61.0797C50.7753 64.17 48.2217 64.2202 47.9012 64.1485C47.375 64.0297 47.0384 63.8299 47.0384 63.1461C47.0384 62.7516 47.1103 62.1849 47.29 61.5016L49.9853 50.8104H43.1578L42.2953 53.9922H45.1339L43.3015 61.4788" fill="white"/>
</g>
<defs>
<filter id="filter0_d_899_839" x="0" y="0" width="116" height="116" filterUnits="userSpaceOnUse" color-interpolation-filters="sRGB">
<feFlood flood-opacity="0" result="BackgroundImageFix"/>
<feColorMatrix in="SourceAlpha" type="matrix" values="0 0 0 0 0 0 0 0 0 0 0 0 0 0 0 0 0 0 127 0" result="hardAlpha"/>
<feOffset dx="3" dy="2"/>
<feGaussianBlur stdDeviation="12"/>
<feComposite in2="hardAlpha" operator="out"/>
<feColorMatrix type="matrix" values="0 0 0 0 0 0 0 0 0 0 0 0 0 0 0 0 0 0 0.09 0"/>
<feBlend mode="normal" in2="BackgroundImageFix" result="effect1_dropShadow_899_839"/>
<feBlend mode="normal" in="SourceGraphic" in2="effect1_dropShadow_899_839" result="shape"/>
</filter>
</defs>
</svg>
